<?xml version="1.0" encoding="UTF-8" standalone="no"?>
<svg
   xmlns:dc="http://purl.org/dc/elements/1.1/"
   xmlns:cc="http://creativecommons.org/ns#"
   xmlns:rdf="http://www.w3.org/1999/02/22-rdf-syntax-ns#"
   xmlns:svg="http://www.w3.org/2000/svg"
   xmlns="http://www.w3.org/2000/svg"
   xmlns:xlink="http://www.w3.org/1999/xlink"
   xmlns:sodipodi="http://sodipodi.sourceforge.net/DTD/sodipodi-0.dtd"
   xmlns:inkscape="http://www.inkscape.org/namespaces/inkscape"
   sodipodi:docname="button8x2.svg"
   inkscape:version="1.0 (4035a4fb49, 2020-05-01)"
   id="svg8"
   version="1.1"
   viewBox="0 0 512 512"
   height="512"
   width="512">
  <defs
     id="defs2">
    <clipPath
       clipPathUnits="userSpaceOnUse"
       id="clipPath944">
      <path
         d="m 1990.53,3503.8 -0.09,-30.68 c -0.01,-2.6 -1.71,-5.2 -5.13,-7.18 l 0.09,30.68 c 3.41,1.98 5.12,4.58 5.13,7.18"
         id="path942" />
    </clipPath>
    <clipPath
       clipPathUnits="userSpaceOnUse"
       id="clipPath968">
      <path
         d="m 1917.26,3526.23 -355.8,-206.77 -92.05,53.14 355.8,206.78 92.05,-53.15"
         id="path966" />
    </clipPath>
    <clipPath
       clipPathUnits="userSpaceOnUse"
       id="clipPath1160">
      <path
         d="m 1417.73,3305.72 0.09,30.67 c -0.02,-5.27 3.46,-10.55 10.43,-14.57 l -0.08,-30.68 c -6.97,4.02 -10.45,9.3 -10.44,14.58"
         id="path1158" />
    </clipPath>
    <clipPath
       clipPathUnits="userSpaceOnUse"
       id="clipPath1174">
      <path
         d="m 1569.86,3255.14 -0.08,-30.67 c -7.19,-4.18 -18.89,-4.18 -26.13,0 l 0.09,30.67 c 7.24,-4.18 18.93,-4.18 26.12,0"
         id="path1172" />
    </clipPath>
    <clipPath
       clipPathUnits="userSpaceOnUse"
       id="clipPath1218">
      <path
         d="m 1758.56,3376.35 -0.01,-1.92 -1.33,-1.87 v 1.91 l 1.34,1.88"
         id="path1216" />
    </clipPath>
    <clipPath
       clipPathUnits="userSpaceOnUse"
       id="clipPath1234">
      <path
         d="m 1741.95,3370.18 0.01,1.91 c 0,-0.69 0.45,-1.38 1.36,-1.9 1.8,-1.04 4.74,-1.04 6.52,0 v -1.92 c -1.79,-1.04 -4.73,-1.04 -6.53,0 -0.9,0.52 -1.36,1.21 -1.36,1.91"
         id="path1232" />
    </clipPath>
    <clipPath
       clipPathUnits="userSpaceOnUse"
       id="clipPath1248">
      <path
         d="m 1740.41,3365.8 v -1.91 l -1.34,-1.88 v 1.92 l 1.34,1.87"
         id="path1246" />
    </clipPath>
    <clipPath
       clipPathUnits="userSpaceOnUse"
       id="clipPath1262">
      <path
         d="m 1723.8,3359.62 0.01,1.92 c 0,-0.69 0.45,-1.38 1.36,-1.9 1.8,-1.04 4.74,-1.04 6.52,0 v -1.92 c -1.79,-1.04 -4.73,-1.04 -6.53,0 -0.91,0.52 -1.36,1.22 -1.36,1.9"
         id="path1260" />
    </clipPath>
    <clipPath
       clipPathUnits="userSpaceOnUse"
       id="clipPath1276">
      <path
         d="m 1722.26,3355.25 -0.01,-1.91 -1.33,-1.88 v 1.92 l 1.34,1.87"
         id="path1274" />
    </clipPath>
    <clipPath
       clipPathUnits="userSpaceOnUse"
       id="clipPath1290">
      <path
         d="m 1705.65,3349.08 0.01,1.92 c 0,-0.69 0.45,-1.39 1.36,-1.91 1.8,-1.04 4.74,-1.04 6.52,0 v -1.92 c -1.79,-1.04 -4.73,-1.04 -6.53,0 -0.91,0.52 -1.36,1.22 -1.36,1.91"
         id="path1288" />
    </clipPath>
    <clipPath
       clipPathUnits="userSpaceOnUse"
       id="clipPath1304">
      <path
         d="m 1704.11,3344.71 -0.01,-1.92 -1.33,-1.88 v 1.92 l 1.34,1.88"
         id="path1302" />
    </clipPath>
    <clipPath
       clipPathUnits="userSpaceOnUse"
       id="clipPath1318">
      <path
         d="m 1687.51,3338.53 v 1.92 c 0,-0.69 0.45,-1.38 1.36,-1.9 1.8,-1.04 4.74,-1.04 6.53,0 l -0.01,-1.92 c -1.79,-1.04 -4.73,-1.04 -6.53,0 -0.91,0.52 -1.36,1.21 -1.35,1.9"
         id="path1316" />
    </clipPath>
    <clipPath
       clipPathUnits="userSpaceOnUse"
       id="clipPath1332">
      <path
         d="m 1907.76,3491.1 -0.01,-1.62 -1.13,-1.6 v 1.63 l 1.14,1.59"
         id="path1330" />
    </clipPath>
    <clipPath
       clipPathUnits="userSpaceOnUse"
       id="clipPath1346">
      <path
         d="m 1893.65,3485.86 0.01,1.63 1.15,-1.62 c 1.53,-0.88 4.02,-0.88 5.55,0 l -0.01,-1.63 c -1.52,-0.89 -4.02,-0.89 -5.55,0 l -1.15,1.62"
         id="path1344" />
    </clipPath>
    <clipPath
       clipPathUnits="userSpaceOnUse"
       id="clipPath1360">
      <path
         d="m 1892.34,3482.14 -0.01,-1.63 -1.13,-1.59 v 1.63 l 1.14,1.59"
         id="path1358" />
    </clipPath>
    <clipPath
       clipPathUnits="userSpaceOnUse"
       id="clipPath1374">
      <path
         d="m 1878.23,3476.89 0.01,1.64 1.15,-1.63 c 1.53,-0.88 4.03,-0.87 5.55,0.01 l -0.01,-1.63 c -1.52,-0.89 -4.01,-0.89 -5.55,0 l -1.15,1.61"
         id="path1372" />
    </clipPath>
    <clipPath
       clipPathUnits="userSpaceOnUse"
       id="clipPath1388">
      <path
         d="m 1876.92,3473.18 -0.01,-1.63 -1.13,-1.59 0.01,1.63 1.13,1.59"
         id="path1386" />
    </clipPath>
    <clipPath
       clipPathUnits="userSpaceOnUse"
       id="clipPath1402">
      <path
         d="m 1862.81,3467.93 0.01,1.64 1.15,-1.63 c 1.53,-0.88 4.03,-0.87 5.55,0 l -0.01,-1.62 c -1.52,-0.88 -4.01,-0.88 -5.55,0 l -1.15,1.61"
         id="path1400" />
    </clipPath>
    <clipPath
       clipPathUnits="userSpaceOnUse"
       id="clipPath1416">
      <path
         d="m 1919.39,3483.9 v -1.63 l -1.14,-1.59 v 1.62 l 1.14,1.6"
         id="path1414" />
    </clipPath>
    <clipPath
       clipPathUnits="userSpaceOnUse"
       id="clipPath1430">
      <path
         d="m 1905.28,3478.65 0.01,1.63 1.15,-1.62 c 1.53,-0.88 4.03,-0.88 5.55,0.01 l -0.01,-1.63 c -1.52,-0.89 -4.01,-0.89 -5.54,0 l -1.16,1.61"
         id="path1428" />
    </clipPath>
    <clipPath
       clipPathUnits="userSpaceOnUse"
       id="clipPath1444">
      <path
         d="m 1903.97,3474.94 v -1.63 l -1.14,-1.59 0.01,1.62 1.13,1.6"
         id="path1442" />
    </clipPath>
    <clipPath
       clipPathUnits="userSpaceOnUse"
       id="clipPath1458">
      <path
         d="m 1889.86,3469.69 0.01,1.63 1.15,-1.62 c 1.53,-0.88 4.03,-0.88 5.55,0 l -0.01,-1.62 c -1.52,-0.89 -4.01,-0.89 -5.54,0 l -1.16,1.61"
         id="path1456" />
    </clipPath>
    <clipPath
       clipPathUnits="userSpaceOnUse"
       id="clipPath1472">
      <path
         d="m 1888.55,3465.98 v -1.63 l -1.14,-1.59 0.01,1.63 1.13,1.59"
         id="path1470" />
    </clipPath>
    <clipPath
       clipPathUnits="userSpaceOnUse"
       id="clipPath1486">
      <path
         d="m 1874.44,3460.73 0.01,1.63 1.15,-1.62 c 1.53,-0.88 4.03,-0.88 5.55,0 l -0.01,-1.63 c -1.52,-0.88 -4.01,-0.88 -5.54,0 l -1.16,1.62"
         id="path1484" />
    </clipPath>
    <clipPath
       clipPathUnits="userSpaceOnUse"
       id="clipPath1500">
      <path
         d="m 1931.88,3476.56 -0.01,-1.63 -1.13,-1.59 v 1.63 l 1.14,1.59"
         id="path1498" />
    </clipPath>
    <clipPath
       clipPathUnits="userSpaceOnUse"
       id="clipPath1514">
      <path
         d="m 1917.77,3471.31 v 1.63 l 1.16,-1.62 c 1.53,-0.88 4.02,-0.88 5.54,0.01 v -1.63 c -1.52,-0.89 -4.02,-0.89 -5.54,0 l -1.16,1.61"
         id="path1512" />
    </clipPath>
    <clipPath
       clipPathUnits="userSpaceOnUse"
       id="clipPath1528">
      <path
         d="m 1916.46,3467.6 -0.01,-1.63 -1.13,-1.59 v 1.63 l 1.14,1.59"
         id="path1526" />
    </clipPath>
    <clipPath
       clipPathUnits="userSpaceOnUse"
       id="clipPath1542">
      <path
         d="m 1902.35,3462.35 0.01,1.63 1.15,-1.62 c 1.53,-0.88 4.02,-0.88 5.55,0 l -0.01,-1.62 c -1.52,-0.89 -4.02,-0.89 -5.54,0 l -1.16,1.61"
         id="path1540" />
    </clipPath>
    <clipPath
       clipPathUnits="userSpaceOnUse"
       id="clipPath1556">
      <path
         d="m 1901.04,3458.64 -0.01,-1.63 -1.13,-1.6 v 1.64 l 1.14,1.59"
         id="path1554" />
    </clipPath>
    <clipPath
       clipPathUnits="userSpaceOnUse"
       id="clipPath1570">
      <path
         d="m 1886.93,3453.39 0.01,1.63 1.15,-1.62 c 1.53,-0.88 4.02,-0.88 5.54,0 v -1.63 c -1.52,-0.88 -4.02,-0.88 -5.54,0 l -1.16,1.62"
         id="path1568" />
    </clipPath>
    <clipPath
       clipPathUnits="userSpaceOnUse"
       id="clipPath1584">
      <path
         d="m 1707.06,3377.69 -0.08,-4.2 c 0,-1.98 -1.3,-3.95 -3.9,-5.47 -5.23,-3.03 -13.74,-3.04 -19,0 -2.65,1.53 -3.98,3.54 -3.97,5.54 l 0.07,4.2 c 0,-2.01 1.32,-4.02 3.97,-5.54 5.26,-3.04 13.77,-3.04 19,0 2.6,1.51 3.91,3.49 3.91,5.47"
         id="path1582" />
    </clipPath>
    <clipPath
       clipPathUnits="userSpaceOnUse"
       id="clipPath1600">
      <path
         d="m 1736.23,3394.54 -0.08,-4.19 c 0,-1.99 -1.3,-3.96 -3.9,-5.47 -5.23,-3.04 -13.74,-3.04 -19,-0.01 -2.65,1.53 -3.98,3.54 -3.97,5.54 l 0.08,4.2 c -0.01,-2 1.31,-4.01 3.96,-5.54 5.26,-3.04 13.77,-3.03 19,0 2.6,1.52 3.9,3.49 3.91,5.47"
         id="path1598" />
    </clipPath>
    <clipPath
       clipPathUnits="userSpaceOnUse"
       id="clipPath1652">
      <path
         d="m 1607.87,3335.33 -0.03,-9.08 c 0,-0.72 -0.48,-1.44 -1.42,-1.98 -1.89,-1.11 -4.98,-1.11 -6.89,-0.01 -0.96,0.56 -1.44,1.29 -1.44,2.02 l 0.03,9.07 c 0,-0.73 0.47,-1.45 1.44,-2.01 1.9,-1.1 4.99,-1.1 6.89,0.01 0.94,0.54 1.41,1.26 1.42,1.98"
         id="path1650" />
    </clipPath>
    <clipPath
       clipPathUnits="userSpaceOnUse"
       id="clipPath1668">
      <path
         d="m 1626.94,3346.33 -0.02,-9.07 c -0.01,-0.72 -0.47,-1.44 -1.42,-1.99 -1.9,-1.1 -4.98,-1.1 -6.89,0 -0.96,0.56 -1.44,1.28 -1.44,2.01 l 0.03,9.08 c 0,-0.73 0.48,-1.46 1.44,-2.01 1.91,-1.1 4.99,-1.1 6.89,0 0.94,0.55 1.41,1.27 1.41,1.98"
         id="path1666" />
    </clipPath>
    <clipPath
       clipPathUnits="userSpaceOnUse"
       id="clipPath1684">
      <path
         d="m 1646.03,3357.09 -0.03,-9.08 c 0,-0.72 -0.48,-1.44 -1.42,-1.98 -1.89,-1.11 -4.98,-1.11 -6.89,0 -0.96,0.55 -1.44,1.27 -1.44,2 l 0.03,9.08 c -0.01,-0.73 0.48,-1.46 1.43,-2.01 1.91,-1.1 5,-1.1 6.9,0 0.94,0.55 1.41,1.27 1.42,1.99"
         id="path1682" />
    </clipPath>
    <clipPath
       clipPathUnits="userSpaceOnUse"
       id="clipPath1714">
      <path
         d="m 1598.04,3288.9 v -1.1 l -0.76,-1.07 v 1.1 l 0.76,1.07"
         id="path1712" />
    </clipPath>
    <clipPath
       clipPathUnits="userSpaceOnUse"
       id="clipPath1730">
      <path
         d="m 1588.55,3285.37 v 1.09 l 0.78,-1.08 c 1.03,-0.6 2.71,-0.6 3.73,0 v -1.1 c -1.02,-0.59 -2.7,-0.59 -3.73,0 l -0.78,1.09"
         id="path1728" />
    </clipPath>
    <clipPath
       clipPathUnits="userSpaceOnUse"
       id="clipPath1746">
      <path
         d="m 1578.62,3288.35 v -1.09 l -0.76,-1.08 v 1.1 l 0.76,1.07"
         id="path1744" />
    </clipPath>
    <clipPath
       clipPathUnits="userSpaceOnUse"
       id="clipPath1762">
      <path
         d="m 1569.14,3284.82 v 1.1 l 0.77,-1.09 c 1.03,-0.6 2.71,-0.6 3.73,0 v -1.1 c -1.02,-0.59 -2.7,-0.6 -3.73,0 l -0.77,1.09"
         id="path1760" />
    </clipPath>
    <clipPath
       clipPathUnits="userSpaceOnUse"
       id="clipPath1778">
      <path
         d="m 1549.26,3292.78 v -1.1 l -0.77,-1.07 0.01,1.09 0.76,1.08"
         id="path1776" />
    </clipPath>
    <clipPath
       clipPathUnits="userSpaceOnUse"
       id="clipPath1794">
      <path
         d="m 1539.77,3289.25 v 1.09 l 0.78,-1.09 c 1.03,-0.59 2.71,-0.59 3.73,0 v -1.09 c -1.03,-0.6 -2.7,-0.6 -3.73,0 l -0.78,1.09"
         id="path1792" />
    </clipPath>
    <clipPath
       clipPathUnits="userSpaceOnUse"
       id="clipPath1810">
      <path
         d="m 1564.21,3272.38 v -1.1 l -0.76,-1.07 v 1.1 l 0.76,1.07"
         id="path1808" />
    </clipPath>
    <clipPath
       clipPathUnits="userSpaceOnUse"
       id="clipPath1826">
      <path
         d="m 1554.72,3268.85 0.01,1.1 0.77,-1.09 c 1.03,-0.6 2.71,-0.59 3.73,0 v -1.1 c -1.02,-0.59 -2.7,-0.59 -3.73,0 l -0.78,1.09"
         id="path1824" />
    </clipPath>
    <clipPath
       clipPathUnits="userSpaceOnUse"
       id="clipPath1842">
      <path
         d="m 1532.95,3278.41 -0.01,-1.1 -0.76,-1.07 v 1.09 l 0.77,1.08"
         id="path1840" />
    </clipPath>
    <clipPath
       clipPathUnits="userSpaceOnUse"
       id="clipPath1858">
      <path
         d="m 1523.46,3274.88 v 1.09 l 0.78,-1.09 c 1.03,-0.59 2.7,-0.59 3.73,0 l -0.01,-1.09 c -1.02,-0.6 -2.7,-0.6 -3.73,0 l -0.77,1.09"
         id="path1856" />
    </clipPath>
    <clipPath
       clipPathUnits="userSpaceOnUse"
       id="clipPath8512">
      <path
         d="m 1569.87,3255.12 c -7.2,-4.14 -18.9,-4.14 -26.1,0 l -115.56,66.69 c -2.16,1.26 -3.96,2.61 -5.49,4.05 -1.44,1.44 -2.52,2.97 -3.33,4.5 -3.69,6.93 -0.81,14.85 8.73,20.43 l 40.32,23.4 13.5,-7.74 5.49,-3.15 134.73,-77.76 -0.09,-30.69 -52.29,-30.42 0.09,30.69 m 40.77,40.5 c -10.98,6.39 -10.98,16.74 0.09,23.13 1.53,0.9 3.15,1.62 4.86,2.25 0.63,0.63 1.35,1.17 2.16,1.71 -0.63,0.63 -0.99,1.35 -0.99,2.16 0,1.08 0.72,2.16 2.16,2.97 0,0 0.09,0 0.09,0.09 v 6.03 c 0,-0.27 0.09,-0.63 0.27,-0.9 -0.54,0.99 -0.18,2.07 1.17,2.88 1.89,1.08 4.95,1.08 6.93,0 1.08,-0.63 1.53,-1.44 1.44,-2.16 0,0 0,0.09 0,0.18 l -0.09,-4.77 c 1.35,0.72 2.79,1.35 4.32,1.89 0.99,0.99 2.25,1.89 3.69,2.7 -0.63,0.63 -0.9,1.35 -0.9,2.07 0,1.17 0.72,2.25 2.16,2.97 0,0 0.09,0 0.09,0.09 v 6.03 c 0,-0.72 0.54,-1.44 1.44,-1.98 1.26,-0.72 2.97,-0.99 4.5,-0.81 l 0.36,0.09 c 0.72,0.18 1.44,0.36 2.07,0.72 0.36,0.18 0.63,0.45 0.9,0.72 0.36,0.45 0.54,0.81 0.54,1.26 l -0.09,-6.03 c 0.09,0 0.09,-0.09 0.18,-0.09 0.36,-0.18 0.72,-0.45 0.99,-0.72 9.63,1.62 20.52,0.27 28.08,-4.14 10.98,-6.39 10.98,-16.74 0,-23.13 -1.53,-0.9 -3.15,-1.62 -4.86,-2.25 -1.08,-0.99 -2.43,-1.98 -3.96,-2.88 -1.44,-0.81 -3.06,-1.53 -4.77,-2.16 -1.17,-1.08 -2.43,-1.98 -3.96,-2.88 -1.53,-0.9 -3.24,-1.62 -4.95,-2.25 -1.17,-0.99 -2.43,-1.98 -3.87,-2.79 -5.58,-3.15 -12.78,-4.77 -20.07,-4.77 -7.2,0 -14.49,1.62 -19.98,4.77 m 6.57,29.25 c 0,-0.63 0.36,-1.35 0.9,-1.89 0.45,0.27 0.81,0.54 1.26,0.81 -0.27,0.36 -0.36,0.72 -0.36,1.08 v 2.52 c -1.08,-0.72 -1.8,-1.62 -1.8,-2.52 m 19.08,10.98 c 0,-0.63 0.36,-1.26 0.9,-1.8 0.36,0.27 0.81,0.45 1.26,0.72 -0.27,0.36 -0.36,0.72 -0.36,1.08 v 2.52 c -1.08,-0.72 -1.8,-1.53 -1.8,-2.52 m 11.52,1.98 c 0.18,0.09 0.45,0.09 0.63,0.18 -0.18,0.09 -0.36,0.27 -0.63,0.36 v -0.54 m -49.86,-14.76 c -1.35,0.81 -2.07,1.89 -2.07,2.97 0,1.17 0.72,2.25 2.07,3.06 2.79,1.62 7.29,1.62 9.99,0 1.44,-0.81 2.16,-1.89 2.16,-3.06 0,-1.08 -0.72,-2.16 -2.16,-2.97 -1.35,-0.81 -3.15,-1.17 -4.95,-1.17 -1.8,0 -3.6,0.36 -5.04,1.17 m 0.27,5.58 c -1.26,-0.72 -1.89,-1.62 -1.89,-2.61 0,-0.99 0.63,-1.89 1.89,-2.61 2.61,-1.53 6.93,-1.53 9.54,0 1.17,0.72 1.89,1.62 1.89,2.61 0,0.99 -0.72,1.89 -1.89,2.61 -1.35,0.81 -3.06,1.17 -4.77,1.17 -1.71,0 -3.42,-0.36 -4.77,-1.17"
         id="path8510"
         style="clip-rule:evenodd" />
    </clipPath>
  </defs>
  <sodipodi:namedview
     inkscape:window-maximized="0"
     inkscape:window-y="23"
     inkscape:window-x="0"
     inkscape:window-height="954"
     inkscape:window-width="1280"
     units="px"
     showgrid="false"
     inkscape:document-rotation="0"
     inkscape:current-layer="layer1"
     inkscape:document-units="px"
     inkscape:cy="185.88566"
     inkscape:cx="127.12787"
     inkscape:zoom="1.28"
     inkscape:pageshadow="2"
     inkscape:pageopacity="0.0"
     borderopacity="1.0"
     bordercolor="#666666"
     pagecolor="#ffffff"
     id="base"
     inkscape:snap-global="false"
     inkscape:pagecheckerboard="true" />
  <metadata
     id="metadata5">
    <rdf:RDF>
      <cc:Work
         rdf:about="">
        <dc:format>image/svg+xml</dc:format>
        <dc:type
           rdf:resource="http://purl.org/dc/dcmitype/StillImage" />
        <dc:title />
      </cc:Work>
    </rdf:RDF>
  </metadata>
  <g
     style="display:inline"
     id="layer1"
     inkscape:groupmode="layer"
     inkscape:label="Layer 1">
    <animateTransform
       xlink:href="#g27502"
       attributeName="transform"
       attributeType="XML"
       type="skewX"
       values="-1;-0.9;0.9;1;0.9;-0.9;-1"
       dur="1s"
       repeatCount="indefinite" />
    <circle
       sodipodi:insensitive="true"
       r="248"
       style="fill:none;stroke:#ffffff;stroke-width:16;stroke-linejoin:round;stroke-miterlimit:4;stroke-dasharray:none;stroke-opacity:1"
       id="path1345"
       cx="256"
       cy="256" />
    <g
       style="font-style:normal;font-variant:normal;font-weight:normal;font-stretch:normal;font-size:192px;line-height:1.25;font-family:sans-serif;-inkscape-font-specification:'sans-serif, Normal';font-variant-ligatures:normal;font-variant-caps:normal;font-variant-numeric:normal;font-variant-east-asian:normal;letter-spacing:0px;word-spacing:0px;fill:#ffffff;fill-opacity:1;stroke:none"
       id="text103"
       aria-label="8x2">
      <path
         d="m 421.76339,327.67859 h -94.5 v -19.59375 q 9.84375,-8.4375 19.6875,-16.875 9.9375,-8.4375 18.46875,-16.78125 18,-17.4375 24.65625,-27.65625 6.65625,-10.3125 6.65625,-22.21875 0,-10.875 -7.21875,-16.96875 -7.125,-6.1875 -19.96875,-6.1875 -8.53125,0 -18.46875,3 -9.9375,3 -19.40625,9.1875 h -0.9375 v -19.6875 q 6.65625,-3.28125 17.71875,-6 11.15625,-2.71875 21.5625,-2.71875 21.46875,0 33.65625,10.40625 12.1875,10.3125 12.1875,28.03125 0,7.96875 -2.0625,14.90625 -1.96875,6.84375 -5.90625,13.03125 -3.65625,5.8125 -8.625,11.4375 -4.875,5.625 -11.90625,12.46875 -10.03125,9.84375 -20.71875,19.125 -10.6875,9.1875 -19.96875,17.0625 h 75.09375 z m -115.21875,0 h -22.21875 l -29.71875,-40.21875 -29.90625,40.21875 h -20.53125 l 40.875,-52.21875 -40.5,-52.5 h 22.21875 l 29.53125,39.5625 29.625,-39.5625 h 20.625 l -41.15625,51.5625 z m -119.625,-38.90625 q 0,18.09375 -14.15625,30.09375 -14.0625,12 -35.4375,12 -22.6875,0 -36.1875,-11.71875 -13.40625,-11.71875 -13.40625,-30 0,-11.625 6.75,-21 6.75,-9.46875 19.03125,-15 v -0.5625 q -11.25,-6 -16.6875,-13.125 -5.34375,-7.125 -5.34375,-17.8125 0,-15.75 12.9375,-26.25 12.9375,-10.5 32.90625,-10.5 20.90625,0 33.375,10.03125 12.46875,10.03125 12.46875,25.5 0,9.46875 -5.90625,18.65625 -5.90625,9.09375 -17.34375,14.25 v 0.5625 q 13.125,5.625 20.0625,13.875 6.9375,8.25 6.9375,21 z m -22.21875,-68.15625 q 0,-10.03125 -7.78125,-15.9375 -7.6875,-6 -19.6875,-6 -11.8125,0 -19.40625,5.625 -7.5,5.625 -7.5,15.1875 0,6.75 3.75,11.71875 3.84375,4.875 11.53125,8.71875 3.46875,1.6875 9.9375,4.40625 6.5625,2.71875 12.75,4.5 9.28125,-6.1875 12.84375,-12.84375 3.5625,-6.65625 3.5625,-15.375 z m 2.90625,69.9375 q 0,-8.625 -3.84375,-13.78125 -3.75,-5.25 -14.8125,-10.5 -4.40625,-2.0625 -9.65625,-3.84375 -5.25,-1.78125 -13.96875,-4.96875 -8.4375,4.59375 -13.59375,12.46875 -5.0625,7.875 -5.0625,17.8125 0,12.65625 8.71875,20.90625 8.71875,8.25 22.125,8.25 13.6875,0 21.84375,-7.03125 8.25,-7.03125 8.25,-19.3125 z"
         id="path125" />
    </g>
  </g>
</svg>
