<?xml version="1.0" encoding="UTF-8" standalone="no"?>
<svg
   xmlns:dc="http://purl.org/dc/elements/1.1/"
   xmlns:cc="http://creativecommons.org/ns#"
   xmlns:rdf="http://www.w3.org/1999/02/22-rdf-syntax-ns#"
   xmlns:svg="http://www.w3.org/2000/svg"
   xmlns="http://www.w3.org/2000/svg"
   xmlns:sodipodi="http://sodipodi.sourceforge.net/DTD/sodipodi-0.dtd"
   xmlns:inkscape="http://www.inkscape.org/namespaces/inkscape"
   version="1.1"
   width="512"
   height="512"
   viewBox="0 0 512 512"
   xml:space="preserve"
   id="svg841"
   sodipodi:docname="copylink.svg"
   inkscape:version="1.0 (4035a4fb49, 2020-05-01)"><metadata
   id="metadata847"><rdf:RDF><cc:Work
       rdf:about=""><dc:format>image/svg+xml</dc:format><dc:type
         rdf:resource="http://purl.org/dc/dcmitype/StillImage" /><dc:title></dc:title></cc:Work></rdf:RDF></metadata><defs
   id="defs845" /><sodipodi:namedview
   inkscape:document-rotation="0"
   pagecolor="#ffffff"
   bordercolor="#666666"
   borderopacity="1"
   objecttolerance="10"
   gridtolerance="10"
   guidetolerance="10"
   inkscape:pageopacity="0"
   inkscape:pageshadow="2"
   inkscape:window-width="1280"
   inkscape:window-height="954"
   id="namedview843"
   showgrid="false"
   inkscape:zoom="0.667"
   inkscape:cx="390.62251"
   inkscape:cy="227.5"
   inkscape:window-x="0"
   inkscape:window-y="23"
   inkscape:window-maximized="1"
   inkscape:current-layer="svg841" />
	
	
	
	
<circle
   style="fill:none;stroke:#ffffff;stroke-width:20.4936"
   id="path849"
   cx="256"
   cy="255.99998"
   r="245.7532" /><g
   style="fill:#ffffff"
   id="g12"
   transform="matrix(0.51684314,0,0,0.51684314,124.47257,124)"><path
     style="fill:#ffffff"
     d="M 351,8.787 V 100 h 91.213 z"
     id="path2" /><circle
     style="fill:#ffffff"
     cx="316"
     cy="361"
     r="15"
     id="circle4" /><circle
     style="fill:#ffffff"
     cx="176"
     cy="381"
     r="15"
     id="circle6" /><path
     style="fill:#ffffff"
     d="M 221,272.445 331,248.874 V 219.555 L 221,243.126 Z"
     id="path8" /><path
     style="fill:#ffffff"
     d="m 336,130 c -8.284,0 -15,-6.716 -15,-15 V 0 H 116 C 85.673,0 61,24.673 61,55 v 402 c 0,30.327 24.673,55 55,55 h 280 c 30.327,0 55,-24.673 55,-55 V 130 Z m 25,231 c 0,24.813 -20.187,45 -45,45 -24.813,0 -45,-20.187 -45,-45 0,-24.813 20.187,-45 45,-45 5.258,0 10.305,0.915 15,2.58 V 279.555 L 221,303.127 V 381 c 0,24.813 -20.187,45 -45,45 -24.813,0 -45,-20.187 -45,-45 0,-24.813 20.187,-45 45,-45 5.258,0 10.305,0.915 15,2.58 V 231 c 0,-7.073 4.941,-13.185 11.857,-14.667 l 140,-30 c 4.43,-0.95 9.05,0.154 12.573,3.002 3.523,2.848 5.57,7.135 5.57,11.665 z"
     id="path10" /></g></svg>
