<?xml version="1.0" encoding="UTF-8" standalone="no"?>
<svg
   xmlns:dc="http://purl.org/dc/elements/1.1/"
   xmlns:cc="http://creativecommons.org/ns#"
   xmlns:rdf="http://www.w3.org/1999/02/22-rdf-syntax-ns#"
   xmlns:svg="http://www.w3.org/2000/svg"
   xmlns="http://www.w3.org/2000/svg"
   xmlns:sodipodi="http://sodipodi.sourceforge.net/DTD/sodipodi-0.dtd"
   xmlns:inkscape="http://www.inkscape.org/namespaces/inkscape"
   inkscape:version="1.0 (4035a4f, 2020-05-01)"
   sodipodi:docname="midilogo.svg"
   id="svg841"
   xml:space="preserve"
   viewBox="0 0 512 512"
   height="512"
   width="512"
   version="1.1"><metadata
   id="metadata847"><rdf:RDF><cc:Work
       rdf:about=""><dc:format>image/svg+xml</dc:format><dc:type
         rdf:resource="http://purl.org/dc/dcmitype/StillImage" /><dc:title></dc:title></cc:Work></rdf:RDF></metadata><defs
   id="defs845" /><sodipodi:namedview
   inkscape:current-layer="svg841"
   inkscape:window-maximized="1"
   inkscape:window-y="23"
   inkscape:window-x="0"
   inkscape:cy="227.5"
   inkscape:cx="390.62251"
   inkscape:zoom="0.667"
   showgrid="false"
   id="namedview843"
   inkscape:window-height="954"
   inkscape:window-width="1280"
   inkscape:pageshadow="2"
   inkscape:pageopacity="0"
   guidetolerance="10"
   gridtolerance="10"
   objecttolerance="10"
   borderopacity="1"
   bordercolor="#666666"
   pagecolor="#ffffff" />
	
	
	
	<g
   style="fill:#ffffff"
   transform="matrix(0.56201674,0,0,0.56201674,-20.996293,127.04639)"
   id="g855"><path
     style="fill:#ffffff"
     aria-label="M"
     text-data="M"
     d="m 137,96 h 233 c 19.6,0 31,16.9 31,37 V 362 H 336 V 163 H 298 V 362 H 239 V 163 h -37 v 199 h -65 z"
     id="path833" /><rect
     style="fill:#ffffff"
     aria-label="I"
     text-data="I"
     x="433"
     y="96"
     width="65"
     height="266"
     id="rect835" /><path
     style="fill:#ffffff"
     aria-label="D"
     text-data="D"
     d="m 529,96 h 193 c 19.6,0 31,16.9 31,37 v 196 c 0,24.9 -10.4,33 -33,33 H 529 V 193 h 66 v 104 h 93 V 156 H 529 Z"
     id="path837" /><rect
     style="fill:#ffffff"
     aria-label="I"
     text-data="I"
     x="783"
     y="96"
     width="66"
     height="266"
     id="rect839" /></g>
<circle
   r="245.7532"
   cy="255.99998"
   cx="256"
   id="path849"
   style="fill:none;stroke:#ffffff;stroke-width:20.4936" /></svg>
